<mxfile host="app.diagrams.net" agent="Mozilla/5.0 (Windows NT 10.0; Win64; x64) AppleWebKit/537.36 (KHTML, like Gecko) Chrome/136.0.0.0 Safari/537.36" version="27.1.1">
  <diagram name="第 1 页" id="D639CsJiYMUyZf9DXLEM">
    <mxGraphModel dx="1042" dy="562" grid="0" gridSize="10" guides="1" tooltips="1" connect="1" arrows="1" fold="1" page="0" pageScale="1" pageWidth="827" pageHeight="1169" math="0" shadow="0">
      <root>
        <mxCell id="0" />
        <mxCell id="1" parent="0" />
        <mxCell id="BeQDKfciGyl9qyScfAEI-1" value="User&lt;div&gt;Request&lt;/div&gt;" style="shape=umlActor;verticalLabelPosition=bottom;verticalAlign=top;html=1;outlineConnect=0;fillColor=none;strokeColor=default;strokeWidth=2;" vertex="1" parent="1">
          <mxGeometry x="76" y="176" width="30" height="60" as="geometry" />
        </mxCell>
        <mxCell id="BeQDKfciGyl9qyScfAEI-2" value="" style="endArrow=classic;html=1;rounded=0;" edge="1" parent="1" target="BeQDKfciGyl9qyScfAEI-3">
          <mxGeometry width="50" height="50" relative="1" as="geometry">
            <mxPoint x="119" y="204" as="sourcePoint" />
            <mxPoint x="169" y="154" as="targetPoint" />
          </mxGeometry>
        </mxCell>
        <mxCell id="BeQDKfciGyl9qyScfAEI-3" value="Django application" style="ellipse;shape=cloud;whiteSpace=wrap;html=1;fillColor=#dae8fc;strokeColor=#0000FF;strokeWidth=2;" vertex="1" parent="1">
          <mxGeometry x="171" y="82" width="134" height="89" as="geometry" />
        </mxCell>
        <mxCell id="BeQDKfciGyl9qyScfAEI-4" value="" style="endArrow=none;html=1;rounded=0;" edge="1" parent="1">
          <mxGeometry width="50" height="50" relative="1" as="geometry">
            <mxPoint x="289" y="126" as="sourcePoint" />
            <mxPoint x="391" y="129" as="targetPoint" />
          </mxGeometry>
        </mxCell>
        <mxCell id="BeQDKfciGyl9qyScfAEI-5" value="" style="endArrow=classic;html=1;rounded=0;" edge="1" parent="1" target="BeQDKfciGyl9qyScfAEI-6">
          <mxGeometry width="50" height="50" relative="1" as="geometry">
            <mxPoint x="392" y="128" as="sourcePoint" />
            <mxPoint x="397" y="181" as="targetPoint" />
          </mxGeometry>
        </mxCell>
        <mxCell id="BeQDKfciGyl9qyScfAEI-6" value="Redis&lt;div&gt;Broker&lt;/div&gt;" style="shape=cylinder3;whiteSpace=wrap;html=1;boundedLbl=1;backgroundOutline=1;size=15;fillColor=#dae8fc;strokeColor=#0000FF;strokeWidth=2;" vertex="1" parent="1">
          <mxGeometry x="383" y="223" width="60" height="80" as="geometry" />
        </mxCell>
        <mxCell id="BeQDKfciGyl9qyScfAEI-7" value="" style="endArrow=classic;html=1;rounded=0;" edge="1" parent="1" target="BeQDKfciGyl9qyScfAEI-8">
          <mxGeometry width="50" height="50" relative="1" as="geometry">
            <mxPoint x="443" y="267" as="sourcePoint" />
            <mxPoint x="537" y="293" as="targetPoint" />
          </mxGeometry>
        </mxCell>
        <mxCell id="BeQDKfciGyl9qyScfAEI-8" value="celery woker" style="ellipse;whiteSpace=wrap;html=1;aspect=fixed;fillColor=#dae8fc;strokeColor=#0000FF;strokeWidth=2;" vertex="1" parent="1">
          <mxGeometry x="492" y="306" width="91" height="91" as="geometry" />
        </mxCell>
        <mxCell id="BeQDKfciGyl9qyScfAEI-9" value="" style="endArrow=classic;html=1;rounded=0;" edge="1" parent="1">
          <mxGeometry width="50" height="50" relative="1" as="geometry">
            <mxPoint x="583" y="359" as="sourcePoint" />
            <mxPoint x="645" y="363" as="targetPoint" />
          </mxGeometry>
        </mxCell>
        <mxCell id="BeQDKfciGyl9qyScfAEI-10" value="PostgreSQL" style="shape=cylinder3;whiteSpace=wrap;html=1;boundedLbl=1;backgroundOutline=1;size=15;fillColor=#dae8fc;strokeColor=#0000FF;strokeWidth=2;" vertex="1" parent="1">
          <mxGeometry x="642" y="329" width="99" height="80" as="geometry" />
        </mxCell>
        <mxCell id="BeQDKfciGyl9qyScfAEI-11" value="" style="endArrow=classic;html=1;rounded=0;" edge="1" parent="1">
          <mxGeometry width="50" height="50" relative="1" as="geometry">
            <mxPoint x="109" y="411.5" as="sourcePoint" />
            <mxPoint x="192" y="411.5" as="targetPoint" />
          </mxGeometry>
        </mxCell>
        <mxCell id="BeQDKfciGyl9qyScfAEI-12" value="Process Guardian" style="text;html=1;align=center;verticalAlign=middle;whiteSpace=wrap;rounded=0;" vertex="1" parent="1">
          <mxGeometry x="117" y="382" width="60" height="30" as="geometry" />
        </mxCell>
        <mxCell id="BeQDKfciGyl9qyScfAEI-13" value="Trigger asynchronous tasks" style="text;html=1;align=center;verticalAlign=middle;whiteSpace=wrap;rounded=0;" vertex="1" parent="1">
          <mxGeometry x="397" y="125" width="154" height="40.5" as="geometry" />
        </mxCell>
        <mxCell id="BeQDKfciGyl9qyScfAEI-14" value="Celery&amp;nbsp;&lt;div&gt;Beat&lt;/div&gt;" style="ellipse;whiteSpace=wrap;html=1;aspect=fixed;fillColor=#dae8fc;strokeColor=#0000FF;strokeWidth=2;" vertex="1" parent="1">
          <mxGeometry x="193" y="367" width="80" height="80" as="geometry" />
        </mxCell>
        <mxCell id="BeQDKfciGyl9qyScfAEI-15" value="" style="endArrow=classic;html=1;rounded=0;entryX=0;entryY=1;entryDx=0;entryDy=-15;entryPerimeter=0;" edge="1" parent="1">
          <mxGeometry width="50" height="50" relative="1" as="geometry">
            <mxPoint x="272" y="397" as="sourcePoint" />
            <mxPoint x="379" y="293" as="targetPoint" />
          </mxGeometry>
        </mxCell>
        <mxCell id="BeQDKfciGyl9qyScfAEI-16" value="timing trigger" style="text;html=1;align=center;verticalAlign=middle;whiteSpace=wrap;rounded=0;" vertex="1" parent="1">
          <mxGeometry x="253" y="316" width="97" height="30" as="geometry" />
        </mxCell>
        <mxCell id="BeQDKfciGyl9qyScfAEI-17" value="&lt;span style=&quot;color: rgb(0, 0, 0); font-family: Helvetica; font-size: 12px; font-style: normal; font-variant-ligatures: normal; font-variant-caps: normal; font-weight: 400; letter-spacing: normal; orphans: 2; text-align: center; text-indent: 0px; text-transform: none; widows: 2; word-spacing: 0px; -webkit-text-stroke-width: 0px; white-space: normal; background-color: rgb(236, 236, 236); text-decoration-thickness: initial; text-decoration-style: initial; text-decoration-color: initial; display: inline !important; float: none;&quot;&gt;execute&lt;/span&gt;" style="text;whiteSpace=wrap;html=1;" vertex="1" parent="1">
          <mxGeometry x="590.0000244140625" y="333.5000244140625" width="70" height="36" as="geometry" />
        </mxCell>
        <mxCell id="BeQDKfciGyl9qyScfAEI-18" value="" style="endArrow=classic;html=1;rounded=0;entryX=0.037;entryY=0.727;entryDx=0;entryDy=0;entryPerimeter=0;" edge="1" parent="1" target="BeQDKfciGyl9qyScfAEI-8">
          <mxGeometry width="50" height="50" relative="1" as="geometry">
            <mxPoint x="273" y="415" as="sourcePoint" />
            <mxPoint x="323" y="365" as="targetPoint" />
          </mxGeometry>
        </mxCell>
        <mxCell id="BeQDKfciGyl9qyScfAEI-19" value="Process Guardian" style="text;html=1;align=center;verticalAlign=middle;whiteSpace=wrap;rounded=0;" vertex="1" parent="1">
          <mxGeometry x="371" y="357" width="60" height="30" as="geometry" />
        </mxCell>
        <mxCell id="BeQDKfciGyl9qyScfAEI-20" value="supervisor" style="triangle;whiteSpace=wrap;html=1;fillColor=#dae8fc;strokeColor=#0000FF;strokeWidth=2;" vertex="1" parent="1">
          <mxGeometry x="21" y="372" width="91" height="80" as="geometry" />
        </mxCell>
      </root>
    </mxGraphModel>
  </diagram>
</mxfile>
